<svg width="1440" height="880" viewBox="0 0 1440 880" fill="none" xmlns="http://www.w3.org/2000/svg">
  <rect width="1440" height="880" fill="#F8F6F2"/>
  <rect x="16" y="16" width="1408" height="848" rx="24" fill="#FFFDF8" stroke="#E8DFC9"/>
  <rect x="40" y="40" width="88" height="800" rx="20" fill="#FFF8EC" stroke="#E7D9BC"/>
  <rect x="56" y="72" width="56" height="12" rx="6" fill="#B58A3E"/>
  <rect x="56" y="272" width="56" height="36" rx="10" fill="#F4E8CE"/>
  <text x="160" y="88" fill="#2D3B55" font-size="28" font-family="PingFang SC, Arial, sans-serif" font-weight="700">知识图谱页面</text>
  <text x="160" y="118" fill="#6D7A91" font-size="16" font-family="PingFang SC, Arial, sans-serif">中间是可拖动图谱，右侧是节点预览；点击节点不会跳走当前页面。</text>

  <rect x="160" y="152" width="900" height="670" rx="20" fill="#FFFFFF" stroke="#E8DFC9"/>
  <text x="188" y="193" fill="#2D3B55" font-size="18" font-family="PingFang SC, Arial, sans-serif" font-weight="700">知识图谱</text>
  <rect x="188" y="214" width="84" height="30" rx="15" fill="#FFF8EC" stroke="#E7D9BC"/>
  <rect x="280" y="214" width="84" height="30" rx="15" fill="#FFFDF8" stroke="#E7D9BC"/>
  <rect x="372" y="214" width="84" height="30" rx="15" fill="#FFFDF8" stroke="#E7D9BC"/>
  <text x="213" y="234" fill="#9C6A1F" font-size="14" font-family="PingFang SC, Arial, sans-serif" font-weight="700">全部节点</text>
  <text x="306" y="234" fill="#2D3B55" font-size="14" font-family="PingFang SC, Arial, sans-serif">概念</text>
  <text x="398" y="234" fill="#2D3B55" font-size="14" font-family="PingFang SC, Arial, sans-serif">实体</text>

  <line x1="336" y1="404" x2="512" y2="332" stroke="#B9C7DD" stroke-width="3"/>
  <line x1="336" y1="404" x2="508" y2="474" stroke="#B9C7DD" stroke-width="3"/>
  <line x1="508" y1="474" x2="688" y2="388" stroke="#B9C7DD" stroke-width="3"/>
  <line x1="512" y1="332" x2="694" y2="286" stroke="#B9C7DD" stroke-width="3"/>
  <line x1="694" y1="286" x2="836" y2="418" stroke="#D69F40" stroke-width="4"/>
  <text x="741" y="351" fill="#9C6A1F" font-size="14" font-family="PingFang SC, Arial, sans-serif" font-weight="700">0.82</text>

  <circle cx="336" cy="404" r="54" fill="#E9F4EA" stroke="#7FB089" stroke-width="3"/>
  <circle cx="512" cy="332" r="46" fill="#FFF1D8" stroke="#D8A552" stroke-width="3"/>
  <circle cx="508" cy="474" r="46" fill="#E7F0FF" stroke="#6F96D8" stroke-width="3"/>
  <circle cx="688" cy="388" r="50" fill="#FFF1D8" stroke="#D8A552" stroke-width="3"/>
  <circle cx="694" cy="286" r="42" fill="#F0E8FF" stroke="#8C71C7" stroke-width="3"/>
  <circle cx="836" cy="418" r="60" fill="#FFF8EC" stroke="#CDA25A" stroke-width="4"/>
  <text x="302" y="402" fill="#2D3B55" font-size="16" font-family="PingFang SC, Arial, sans-serif" font-weight="700">Overview</text>
  <text x="478" y="334" fill="#2D3B55" font-size="14" font-family="PingFang SC, Arial, sans-serif" font-weight="700">Source A</text>
  <text x="474" y="476" fill="#2D3B55" font-size="14" font-family="PingFang SC, Arial, sans-serif" font-weight="700">Source B</text>
  <text x="650" y="390" fill="#2D3B55" font-size="15" font-family="PingFang SC, Arial, sans-serif" font-weight="700">数字化核身</text>
  <text x="671" y="288" fill="#2D3B55" font-size="14" font-family="PingFang SC, Arial, sans-serif" font-weight="700">Entity</text>
  <text x="797" y="416" fill="#2D3B55" font-size="16" font-family="PingFang SC, Arial, sans-serif" font-weight="700">合规边界</text>

  <rect x="188" y="748" width="736" height="44" rx="14" fill="#FFFCF6" stroke="#EEE2C9"/>
  <circle cx="230" cy="770" r="8" fill="#B48D55"/>
  <text x="246" y="776" fill="#2D3B55" font-size="14" font-family="PingFang SC, Arial, sans-serif">Other</text>
  <circle cx="344" cy="770" r="8" fill="#7FB089"/>
  <text x="360" y="776" fill="#2D3B55" font-size="14" font-family="PingFang SC, Arial, sans-serif">Overview</text>
  <circle cx="486" cy="770" r="8" fill="#6F96D8"/>
  <text x="502" y="776" fill="#2D3B55" font-size="14" font-family="PingFang SC, Arial, sans-serif">Source</text>
  <circle cx="602" cy="770" r="8" fill="#D8A552"/>
  <text x="618" y="776" fill="#2D3B55" font-size="14" font-family="PingFang SC, Arial, sans-serif">Concept</text>
  <circle cx="722" cy="770" r="8" fill="#8C71C7"/>
  <text x="738" y="776" fill="#2D3B55" font-size="14" font-family="PingFang SC, Arial, sans-serif">Entity</text>

  <rect x="1080" y="152" width="320" height="670" rx="20" fill="#FFFFFF" stroke="#E8DFC9"/>
  <text x="1108" y="193" fill="#2D3B55" font-size="18" font-family="PingFang SC, Arial, sans-serif" font-weight="700">节点预览</text>
  <text x="1108" y="221" fill="#6D7A91" font-size="15" font-family="PingFang SC, Arial, sans-serif">单击节点时，右侧展示对应知识页内容；双击仍可跳去知识库页深看。</text>
  <rect x="1108" y="248" width="264" height="536" rx="18" fill="#FFFCF6" stroke="#EEE2C9"/>
  <text x="1132" y="290" fill="#2D3B55" font-size="20" font-family="PingFang SC, Arial, sans-serif" font-weight="700">概念：合规边界</text>
  <text x="1132" y="332" fill="#52627F" font-size="14" font-family="PingFang SC, Arial, sans-serif">在个人贷款数字化核身场景中，合规边界主要由监管办法、</text>
  <text x="1132" y="360" fill="#52627F" font-size="14" font-family="PingFang SC, Arial, sans-serif">受托支付要求、电子签约留痕规则以及面签替代适用范围共同决定。</text>
  <text x="1132" y="416" fill="#2D3B55" font-size="16" font-family="PingFang SC, Arial, sans-serif" font-weight="700">关联页面</text>
  <text x="1132" y="450" fill="#6D7A91" font-size="14" font-family="PingFang SC, Arial, sans-serif">• 来源：个人贷款管理办法</text>
  <text x="1132" y="478" fill="#6D7A91" font-size="14" font-family="PingFang SC, Arial, sans-serif">• 概念：数字化核身</text>
  <text x="1132" y="506" fill="#6D7A91" font-size="14" font-family="PingFang SC, Arial, sans-serif">• 实体：《个人贷款管理办法》</text>
</svg>
